<svg width="342" height="285" viewBox="0 0 342 285" fill="none" xmlns="http://www.w3.org/2000/svg">
<path d="M342 138.674C342 124.42 329.649 113.307 315.474 114.807L21.4744 145.918C9.26544 147.21 0 157.508 0 169.785V261C0 274.255 10.7452 285 24 285H318C331.255 285 342 274.255 342 261V138.674Z" fill="url(#paint0_linear_2_226)"/>
<g clip-path="url(#clip0_2_226)">
<path d="M129.975 232.723C129.975 232.723 129.457 232.523 128.511 232.136C118.085 227.908 55.6968 201.481 65.3299 178.554C66.9556 174.682 69.2115 172.457 71.9225 171.61L71.9291 171.606C86.7074 166.973 115.064 202.941 129.975 232.723Z" fill="#96C258"/>
<g opacity="0.43">
<path opacity="0.43" d="M66.092 176.94C72.0179 180.813 77.7578 184.969 83.3564 189.304C84.7528 190.39 86.1557 191.471 87.54 192.582L91.6747 195.918C94.3987 198.182 97.1199 200.457 99.7885 202.784C102.472 205.098 105.083 207.493 107.716 209.872L111.586 213.521L113.514 215.35L115.403 217.223C120.494 222.161 125.303 227.391 129.976 232.717C127.388 230.295 124.94 227.738 122.327 225.348L118.487 221.69L114.601 218.081C109.414 213.278 104.163 208.547 98.8178 203.924C93.4974 199.269 88.0937 194.72 82.6375 190.223C77.1705 185.745 71.6813 181.29 66.092 176.94Z" fill="#467238"/>
</g>
<g style="mix-blend-mode:multiply" opacity="0.08">
<path d="M79.3845 175.944C81.3993 174.722 90.6469 181.663 87.8774 184.184C85.1169 186.713 75.7605 178.147 79.3845 175.944Z" fill="#2D480B"/>
</g>
<path d="M133.003 228.148C132.236 229.843 131.788 230.796 131.788 230.796C121.247 194.143 118.023 139.389 139.877 145.451C140.657 145.66 141.473 145.956 142.323 146.334C164.06 155.994 138.976 214.902 133.003 228.148Z" fill="#96C258"/>
<g opacity="0.18">
<path opacity="0.18" d="M144.992 156.454C147.737 156.589 149.642 168.473 145.792 169.814C141.943 171.156 142.426 156.328 144.992 156.454Z" fill="#66C281"/>
<path opacity="0.18" d="M141.327 173.843C143.083 173.463 142.776 180.373 140.264 180.951C137.756 181.53 139.573 174.218 141.327 173.843Z" fill="#66C281"/>
</g>
<g opacity="0.43">
<path opacity="0.43" d="M140.681 145.694C139.543 152.749 138.551 159.815 137.597 166.885C136.659 173.954 135.789 181.036 135.054 188.126C134.276 195.216 133.643 202.317 133.106 209.427L132.71 214.762L132.384 220.1C132.096 223.658 132.041 227.228 131.788 230.796C131.601 223.659 131.573 216.503 131.948 209.361L132.06 206.684L132.234 204.007L132.585 198.654C132.902 195.092 133.187 191.528 133.578 187.975C133.954 184.418 134.399 180.869 134.86 177.324L135.623 172.015C135.883 170.244 136.174 168.482 136.46 166.719C137.603 159.661 138.978 152.642 140.681 145.694Z" fill="#93C356"/>
</g>
<path d="M131.668 231.12C131.677 231.294 131.135 230.771 130.175 229.68C121.226 219.489 75.7496 159.379 94.8841 145.913C95.2043 145.682 95.5474 145.468 95.9096 145.265C119.911 131.93 130.459 188.662 131.668 231.12Z" fill="#96C258"/>
<g opacity="0.43">
<path opacity="0.43" d="M97.9778 144.274C101.741 151.068 105.123 158.078 108.307 165.168C111.496 172.259 114.471 179.454 117.275 186.708C120.031 193.984 122.704 201.298 125.082 208.711C126.324 212.401 127.418 216.135 128.553 219.857C129.114 221.72 129.61 223.603 130.14 225.48C130.666 227.355 131.174 229.231 131.67 231.115C129.122 223.762 126.613 216.408 123.982 209.1L122.017 203.615L119.996 198.154C119.335 196.332 118.652 194.515 117.962 192.701C117.271 190.887 116.599 189.068 115.891 187.26L113.789 181.833L111.638 176.427C110.936 174.616 110.195 172.827 109.462 171.03L107.25 165.646L106.135 162.957L104.995 160.278C104.25 158.483 103.473 156.707 102.703 154.923C101.183 151.347 99.592 147.808 97.9778 144.274Z" fill="#467238"/>
</g>
<g opacity="0.18">
<g style="mix-blend-mode:multiply" opacity="0.24">
<path d="M107.46 148.782C110.052 147.17 117.416 158.576 115.078 160.901C112.74 163.226 105.46 150.031 107.46 148.782Z" fill="#2D480B"/>
</g>
<g style="mix-blend-mode:multiply" opacity="0.24">
<path d="M115.863 164.352C117.79 163.312 123.059 172.077 120.239 173.64C117.423 175.203 113.267 165.752 115.863 164.352Z" fill="#2D480B"/>
</g>
</g>
</g>
<g clip-path="url(#clip1_2_226)">
<path d="M149.789 209.857C141.817 209.721 115.778 210.084 114.446 196.254C111.406 164.602 128.208 117.002 128.208 117.002H171.142C171.142 117.002 182.303 164.602 183.424 187.882C184.335 206.71 176.157 210.303 149.789 209.857Z" fill="#A28230"/>
<path d="M134.196 114.328C134.196 114.328 127.652 130.697 122.978 167.872" stroke="#EDB31C" stroke-width="1.8391" stroke-miterlimit="10"/>
<path d="M128.585 173.973C128.585 173.973 129.518 198.618 127.621 201.935C125.725 205.253 111.809 198.618 110.705 194.67C109.597 190.722 110.39 178.463 112.917 170.848L128.585 173.973Z" fill="#9F906A"/>
<path d="M131.099 177.448C131.099 177.448 130.924 168.716 129.43 167.872C127.937 167.023 116.014 163.132 114.227 164.602C112.44 166.073 110 173.343 110 173.343C110 173.343 120.981 178.398 131.099 177.448Z" fill="#D5AB41"/>
<path d="M197.423 127.195C202.587 127.195 206.775 122.044 206.775 115.685C206.775 109.33 202.587 104.174 197.423 104.174H129.93V127.195H197.423Z" fill="#F26E24"/>
<path d="M129.934 127.195C124.769 127.195 120.583 122.042 120.583 115.685C120.583 109.328 124.769 104.174 129.934 104.174C135.099 104.174 139.286 109.328 139.286 115.685C139.286 122.042 135.099 127.195 129.934 127.195Z" fill="#B8A67A"/>
<path d="M129.934 124.162C130.521 124.092 131.09 123.895 131.638 123.65C132.168 123.375 132.685 123.064 133.149 122.679C134.091 121.922 134.87 120.959 135.44 119.865C136.001 118.77 136.316 117.545 136.408 116.306C136.496 115.059 136.277 113.829 135.974 112.634C135.628 111.44 135.059 110.267 134.187 109.295C133.324 108.323 132.146 107.584 130.845 107.277C129.549 106.962 128.165 107.085 126.929 107.553C125.69 108.017 124.595 108.849 123.793 109.89C122.996 110.923 122.466 112.175 122.282 113.47C122.098 114.766 122.234 116.092 122.681 117.313C123.123 118.525 123.85 119.668 124.936 120.482C125.466 120.897 126.097 121.208 126.807 121.344C126.991 121.366 127.175 121.409 127.354 121.401L127.897 121.366C128.243 121.287 128.598 121.213 128.9 121.051C129.225 120.924 129.496 120.718 129.776 120.534C130.03 120.32 130.293 120.114 130.499 119.86C130.731 119.628 130.906 119.352 131.099 119.09C131.187 118.954 131.261 118.805 131.336 118.665C131.415 118.525 131.485 118.376 131.537 118.223C131.804 117.632 131.91 116.976 131.936 116.328C131.94 115.672 131.796 115.02 131.52 114.433C131.204 113.86 130.841 113.348 130.337 112.945C129.855 112.538 129.181 112.227 128.502 112.363C127.827 112.486 127.337 112.984 127.043 113.514C126.75 114.048 126.667 114.713 126.89 115.265C126.745 114.691 126.921 114.092 127.253 113.641C127.578 113.195 128.055 112.831 128.567 112.805C129.076 112.774 129.549 113.033 129.921 113.409C130.009 113.51 130.114 113.593 130.193 113.707L130.429 114.044C130.517 114.149 130.56 114.28 130.626 114.394C130.683 114.516 130.758 114.626 130.797 114.753C130.972 115.247 131.055 115.768 131.012 116.293C130.946 116.81 130.828 117.33 130.574 117.794C130.521 117.917 130.46 118.031 130.381 118.14C130.306 118.25 130.245 118.363 130.171 118.473C130.004 118.674 129.855 118.893 129.658 119.064C129.483 119.256 129.268 119.401 129.067 119.558C128.848 119.681 128.638 119.83 128.405 119.9C127.954 120.079 127.481 120.145 127.065 120.026C126.96 120.018 126.85 119.974 126.737 119.926C126.627 119.878 126.513 119.851 126.408 119.786C126.198 119.659 125.983 119.549 125.795 119.374C125.006 118.748 124.437 117.812 124.113 116.814C123.784 115.816 123.671 114.744 123.833 113.711C123.99 112.678 124.415 111.702 125.063 110.875C125.685 110.048 126.526 109.396 127.49 109.024C128.449 108.647 129.505 108.56 130.504 108.765C131.502 108.967 132.426 109.496 133.145 110.253C133.863 111.015 134.402 111.969 134.77 113.011C135.103 114.07 135.344 115.168 135.348 116.28C135.352 117.387 135.146 118.499 134.717 119.536C134.301 120.578 133.653 121.536 132.847 122.35C132.045 123.156 131.073 123.843 129.934 124.162Z" fill="#F26E24"/>
<g style="mix-blend-mode:multiply">
<path d="M186.569 122.972C190.835 119.619 203.84 124.324 215.092 135.008C226.345 145.691 223.559 155.972 215.679 158.545C207.799 161.119 193.275 150.917 186.744 142.667C180.213 134.417 181.527 126.937 186.569 122.972Z" fill="#B28473"/>
</g>
<path d="M215.097 85.2934C217.939 95.4078 225.688 135.441 224.921 147.083C224.155 158.725 207.633 164.567 202.618 149.573C197.598 134.579 203.367 94.9395 205.355 82.9738C207.432 70.4654 212.258 75.179 215.097 85.2934Z" fill="#FFCFAA"/>
<path d="M200.651 128.316C200.87 122.937 201.26 117.567 201.803 112.214C202.324 106.857 202.973 101.518 203.708 96.1869C204.081 93.5215 204.475 90.8605 204.878 88.2039L205.509 84.2212C205.723 82.8907 205.947 81.5777 206.284 80.2953C206.621 79.0217 207.037 77.7306 207.764 76.7196C208.128 76.2338 208.601 75.8224 209.113 75.8443C209.241 75.8268 209.372 75.8749 209.499 75.8924C209.626 75.9493 209.757 75.9799 209.884 76.0631L210.073 76.1725L210.252 76.3126C210.375 76.3957 210.484 76.5139 210.598 76.6189C211.483 77.5161 212.14 78.6891 212.71 79.8752C213.27 81.0743 213.743 82.3217 214.159 83.5865C214.987 86.1206 215.579 88.7466 216.192 91.3594C216.792 93.9811 217.361 96.607 217.9 99.2418C218.991 104.511 219.985 109.798 220.953 115.09C221.903 120.385 222.788 125.694 223.533 131.021C223.914 133.682 224.26 136.351 224.523 139.03C224.65 140.369 224.786 141.708 224.838 143.052L224.895 144.059L224.926 144.562V145.065L224.917 147.083L224.987 145.065L225.005 144.562L224.991 144.059L224.965 143.048C224.943 141.7 224.838 140.356 224.742 139.012C224.536 136.325 224.251 133.647 223.927 130.972C223.257 125.629 222.447 120.302 221.566 114.985C220.695 109.667 219.678 104.376 218.623 99.093C218.093 96.4538 217.536 93.8147 216.945 91.1844C216.336 88.5584 215.763 85.9237 214.926 83.3327C214.497 82.0416 214.01 80.768 213.424 79.5338C212.823 78.3083 212.153 77.0872 211.137 76.0631C211.006 75.9406 210.879 75.8093 210.725 75.7042L210.502 75.5379L210.252 75.3935C210.095 75.2884 209.898 75.2315 209.714 75.1615C209.512 75.1265 209.315 75.0652 209.1 75.0827C208.89 75.074 208.689 75.1353 208.483 75.1878C208.303 75.2753 208.097 75.3453 207.953 75.4723L207.716 75.6473L207.515 75.8486C207.375 75.9799 207.269 76.1287 207.156 76.2732C206.319 77.4636 205.916 78.7985 205.57 80.1159C205.233 81.4376 205.009 82.7856 204.799 84.1117L204.186 88.1076C203.787 90.773 203.428 93.4427 203.091 96.1125C202.429 101.461 201.847 106.818 201.404 112.183C201.002 117.549 200.691 122.933 200.651 128.316Z" fill="#5F3732"/>
<path d="M136.513 212.33C136.513 212.33 130.858 227.832 126.671 260.004H195.285C195.285 260.004 197.721 235.355 195.956 212.33H136.513Z" fill="#4C2843"/>
<g opacity="0.3">
<g opacity="0.3">
<path opacity="0.3" d="M134.923 260L136.96 248.065L139.027 236.143L141.147 224.234L143.324 212.325C143.066 213.301 142.816 214.282 142.575 215.258C142.33 216.238 142.085 217.218 141.857 218.199C141.401 220.164 140.963 222.138 140.543 224.112C140.096 226.081 139.732 228.068 139.329 230.046C138.957 232.029 138.585 234.016 138.234 236.003C137.547 239.981 136.894 243.968 136.351 247.969C136.079 249.969 135.812 251.969 135.558 253.973C135.335 255.982 135.089 257.987 134.923 260Z" fill="white"/>
</g>
<g opacity="0.3">
<path opacity="0.3" d="M141.388 221.416C143.057 221.945 144.84 222.111 146.609 222.011C148.379 221.906 150.144 221.468 151.76 220.685C152.562 220.278 153.32 219.792 154.02 219.232C154.712 218.658 155.334 218.011 155.886 217.31C156.968 215.892 157.743 214.273 158.195 212.588C157.428 214.159 156.521 215.63 155.404 216.908C154.27 218.168 152.921 219.218 151.41 219.962C149.899 220.711 148.247 221.162 146.557 221.389C144.857 221.604 143.123 221.617 141.388 221.416Z" fill="white"/>
</g>
<g opacity="0.3">
<path opacity="0.3" d="M174.546 212.588C174.388 215.411 174.287 218.234 174.235 221.057C174.2 222.47 174.191 223.88 174.169 225.293C174.169 225.648 174.143 225.98 174.195 226.405C174.248 226.808 174.41 227.236 174.712 227.569C175.019 227.902 175.439 228.099 175.846 228.177C176.258 228.256 176.666 228.239 177.051 228.164C177.822 228.011 178.531 227.652 179.114 227.131C179.403 226.869 179.662 226.562 179.854 226.204C180.047 225.858 180.17 225.433 180.192 225.048C180.284 223.599 180.27 222.199 180.244 220.781C180.192 217.954 180.034 215.131 179.806 212.312C179.723 215.139 179.67 217.962 179.618 220.781C179.574 222.186 179.57 223.608 179.434 224.978C179.346 226.199 178.115 227.145 176.902 227.377C176.293 227.503 175.645 227.416 175.29 227.035C175.115 226.843 175.005 226.589 174.966 226.295C174.927 226.02 174.94 225.643 174.931 225.293C174.909 223.88 174.9 222.47 174.865 221.057C174.808 218.234 174.703 215.411 174.546 212.588Z" fill="white"/>
</g>
<g opacity="0.3">
<path opacity="0.3" d="M189.797 212.317C189.412 213.446 189.28 214.662 189.359 215.87C189.438 217.078 189.758 218.304 190.402 219.376C190.726 219.906 191.12 220.4 191.571 220.829C192.035 221.245 192.548 221.599 193.1 221.875C194.208 222.418 195.412 222.672 196.604 222.676C195.461 222.343 194.37 221.923 193.411 221.328C192.46 220.72 191.654 219.928 191.094 218.965C190.511 218.015 190.183 216.921 189.986 215.796C189.793 214.667 189.74 213.498 189.797 212.317Z" fill="white"/>
</g>
<g opacity="0.3">
<path opacity="0.3" d="M179.929 233.009C178.904 233.329 177.892 233.67 176.876 234.012C175.86 234.344 174.848 234.694 173.836 235.049C171.817 235.753 169.802 236.476 167.791 237.215L167.581 237.294L167.551 237.526C167.314 239.395 167.095 241.264 166.88 243.132C166.67 245.001 166.464 246.874 166.276 248.748C166.083 250.621 165.908 252.494 165.75 254.372C165.667 255.308 165.597 256.249 165.531 257.186C165.461 258.127 165.391 259.063 165.339 260.004C165.505 259.076 165.65 258.144 165.794 257.216C165.943 256.284 166.088 255.356 166.219 254.424C166.491 252.56 166.745 250.695 166.986 248.831C167.231 246.966 167.454 245.098 167.678 243.229C167.892 241.36 168.102 239.487 168.3 237.618L168.059 237.924C170.052 237.145 172.04 236.349 174.02 235.539C175.01 235.132 176 234.725 176.981 234.3C177.962 233.867 178.948 233.451 179.929 233.009Z" fill="white"/>
</g>
</g>
<path d="M195.728 122.841C202.197 129.769 202.679 163.591 200.086 179.382C197.497 195.173 196.832 216.041 196.832 216.041C196.832 216.041 173.875 231.569 134.025 213.809C134.025 213.809 136.355 181.063 133.377 161.911C130.398 142.754 132.47 125.541 145.032 118.683C157.603 111.825 186.503 112.958 195.728 122.841Z" fill="#FFAC30"/>
<g opacity="0.3">
<path opacity="0.3" d="M201.505 161.596C201.492 162.178 201.479 162.76 201.461 163.333C197.318 164.55 192.289 165.74 186.534 166.568C181.97 167.224 176.661 167.684 170.757 167.684C159.977 167.684 147.201 166.147 133.316 161.473C133.224 160.874 133.14 160.274 133.057 159.679C162.465 169.802 187.48 165.74 201.505 161.596Z" fill="white"/>
<path opacity="0.3" d="M201.032 171.251C200.984 171.85 200.936 172.441 200.879 173.019C196.849 174.174 192.022 175.295 186.534 176.082C181.97 176.739 176.666 177.198 170.757 177.198C160.253 177.198 147.858 175.732 134.389 171.334C134.349 170.752 134.305 170.178 134.257 169.609C162.816 179.098 187.117 175.29 201.032 171.251Z" fill="white"/>
<path opacity="0.3" d="M199.815 181.107C199.723 181.698 199.639 182.297 199.552 182.901C195.802 183.925 191.431 184.893 186.534 185.597C181.97 186.254 176.661 186.713 170.757 186.713C160.367 186.713 148.12 185.273 134.818 180.984C134.805 180.42 134.792 179.851 134.774 179.286C162.294 188.293 185.816 184.98 199.815 181.107Z" fill="white"/>
<path opacity="0.3" d="M170.757 196.224C160.385 196.224 148.16 194.788 134.884 190.517C134.888 189.961 134.892 189.4 134.892 188.836C161.559 197.537 184.462 194.674 198.571 190.954C198.509 191.545 198.448 192.131 198.391 192.718C194.909 193.624 190.936 194.469 186.534 195.103C181.97 195.76 176.661 196.224 170.757 196.224Z" fill="white"/>
<path opacity="0.3" d="M134.38 207.695C160.35 216.299 182.789 213.905 197.086 210.36C197.055 210.986 197.024 211.564 196.998 212.098C193.862 212.868 190.358 213.581 186.534 214.128C181.97 214.785 176.666 215.244 170.757 215.244C160.231 215.244 147.801 213.77 134.292 209.349C134.323 208.837 134.354 208.286 134.38 207.695Z" fill="white"/>
<path opacity="0.3" d="M197.033 124.758C197.283 125.226 197.519 125.738 197.747 126.298C194.423 127.143 190.664 127.922 186.534 128.517C181.97 129.174 176.661 129.633 170.757 129.633C161.208 129.633 150.087 128.416 138.024 124.893C138.361 124.425 138.712 123.97 139.084 123.532C163.021 130.377 183.608 128.079 197.033 124.758Z" fill="white"/>
<path opacity="0.3" d="M199.731 133.568C199.832 134.102 199.928 134.649 200.02 135.209C196.17 136.277 191.637 137.301 186.534 138.032C181.97 138.688 176.666 139.148 170.757 139.148C160.166 139.148 147.647 137.66 134.043 133.174C134.2 132.657 134.362 132.145 134.538 131.646C162.106 140.732 185.68 137.445 199.731 133.568Z" fill="white"/>
<path opacity="0.3" d="M201.479 152.09C201.496 152.659 201.505 153.232 201.518 153.805C197.366 155.026 192.316 156.226 186.534 157.057C181.97 157.714 176.661 158.173 170.757 158.173C159.71 158.173 146.565 156.549 132.282 151.599C132.251 151.022 132.229 150.448 132.212 149.879C161.966 160.362 187.318 156.274 201.479 152.09Z" fill="white"/>
<path opacity="0.3" d="M170.757 205.734C160.336 205.734 148.046 204.285 134.691 199.966C134.708 199.419 134.726 198.863 134.739 198.298C160.932 206.881 183.499 204.303 197.695 200.692C197.651 201.287 197.607 201.87 197.567 202.443C194.287 203.27 190.59 204.036 186.53 204.618C181.97 205.275 176.661 205.734 170.757 205.734Z" fill="white"/>
<path opacity="0.3" d="M200.945 142.737C200.993 143.293 201.041 143.853 201.085 144.417C197.016 145.595 192.119 146.741 186.534 147.542C181.97 148.199 176.661 148.658 170.757 148.658C159.741 148.658 146.64 147.043 132.404 142.128C132.453 141.577 132.505 141.03 132.571 140.487C161.795 150.685 186.74 146.846 200.945 142.737Z" fill="white"/>
</g>
<path d="M133.543 201.843C134.121 201.843 134.713 201.703 135.256 201.41C136.281 200.858 160.402 187.51 163.065 155.385C165.396 127.222 151.852 116.149 151.191 115.689C148.808 114.039 143.061 118.044 144.625 119.291C145.111 119.689 157.835 130.697 155.842 154.79C153.517 182.888 135.571 192.797 133.539 193.887C131.507 194.972 132.177 202.211 133.543 201.843Z" fill="#D5AB41"/>
<path d="M184.41 116.661C184.97 118.136 185.115 119.812 184.523 121.239C184.453 121.418 184.388 121.598 184.283 121.76C184.182 121.922 184.103 122.097 183.994 122.25C183.757 122.547 183.538 122.858 183.24 123.103C182.697 123.637 182.031 124.04 181.348 124.39C179.986 125.06 178.404 125.23 176.854 125.252C175.295 125.261 173.727 125.116 172.18 124.832C169.092 124.285 166.057 123.305 163.293 121.821C161.918 121.072 160.621 120.166 159.513 119.059C158.966 118.499 158.475 117.886 158.068 117.212C157.687 116.525 157.389 115.79 157.213 115.011C157.301 115.803 157.533 116.582 157.879 117.313C158.243 118.035 158.698 118.705 159.22 119.326C160.293 120.538 161.589 121.545 162.978 122.364C165.763 124.005 168.865 125.046 172.036 125.624C173.626 125.9 175.242 126.049 176.863 126.014C177.673 125.979 178.488 125.922 179.294 125.755C180.095 125.598 180.906 125.357 181.633 124.946C182.347 124.543 183.052 124.092 183.608 123.475C183.915 123.191 184.138 122.841 184.375 122.499C184.488 122.324 184.567 122.132 184.664 121.948C184.764 121.768 184.83 121.571 184.891 121.37C185.4 119.79 185.137 118.07 184.41 116.661Z" fill="#CB7F0F"/>
<path d="M195.96 212.33C193.525 213.367 191.006 214.177 188.457 214.868C185.912 215.56 183.332 216.124 180.73 216.553C178.129 216.973 175.514 217.297 172.886 217.477C170.257 217.674 167.625 217.726 164.993 217.652C163.674 217.643 162.364 217.547 161.046 217.477C159.736 217.354 158.422 217.267 157.117 217.087C154.498 216.807 151.905 216.317 149.32 215.8C148.037 215.503 146.745 215.24 145.475 214.881L143.565 214.369L141.673 213.787C140.398 213.433 139.163 212.964 137.91 212.549C137.28 212.347 136.675 212.085 136.053 211.853L134.196 211.152C135.405 211.686 136.605 212.255 137.836 212.745C139.071 213.218 140.293 213.743 141.55 214.159L143.434 214.798L145.339 215.367C146.605 215.765 147.901 216.067 149.185 216.4C151.769 217.008 154.384 217.507 157.021 217.84C158.335 218.037 159.662 218.124 160.985 218.26C162.312 218.334 163.639 218.44 164.966 218.457C170.284 218.593 175.614 218.159 180.835 217.162C186.048 216.137 191.203 214.671 195.96 212.33Z" fill="#80C6A7"/>
<path d="M196.468 120.963C194.243 118.035 185.132 116.28 184.988 116.836C184.659 118.092 186.232 118.219 188.474 120.324C206.792 137.546 198.632 177.605 200.594 177.991C200.831 178.034 211.825 141.157 196.468 120.963Z" fill="#D5AB41"/>
<path d="M159.303 114.328V63.2046H197.716C197.716 63.2046 197.716 85.1797 197.716 94.852C197.716 104.524 191.847 110.389 182.776 110.389C182.776 110.389 182.776 111.571 182.776 117.913C182.776 124.679 173.052 123.611 165.141 120.333C160.639 118.455 159.452 118.21 159.303 114.328Z" fill="#FFCFAA"/>
<path d="M159.224 84.0986C159.224 84.0986 166.644 83.0264 168.9 71.9579C168.9 71.9579 195.886 77.1135 200.296 70.6667C204.707 64.22 201.694 60.6749 193.31 58.9549C184.922 57.2349 159.316 56.5959 154.432 63.2002C149.548 69.8046 148.217 80.5054 150.726 88.5366C153.096 96.1125 159.228 94.7995 159.228 94.7995V84.0986H159.224Z" fill="#CD543D"/>
<path opacity="0.5" d="M182.776 110.385C182.776 110.385 176.403 110.547 173.091 109.024C173.091 109.024 175.365 112.127 182.776 112.118V110.385Z" fill="#B28473"/>
<path d="M149.929 73.6472C149.929 73.6472 173.683 65.2353 199.398 66.6446C199.398 66.6446 195.268 53.4228 193.674 49.7639C192.079 46.1051 179.758 45.6368 171.62 46.2013C163.477 46.7659 154.975 49.974 153.32 53.4228C150.446 59.3925 149.929 73.6472 149.929 73.6472Z" fill="#F15231"/>
<path opacity="0.3" d="M166.456 52.2936C167.24 49.2475 177.366 46.2495 177.962 46C177.984 46 178.006 46 178.028 46C178.729 46.2013 189.718 49.742 190.559 51.9041C191.238 53.6504 192.07 62.0666 192.07 66.4958C182.22 66.6183 172.995 67.9751 165.698 69.4763C165.702 69.4763 165.834 54.7183 166.456 52.2936Z" fill="#F3D07F"/>
<path d="M159.934 70.7761C159.934 70.7761 166.924 57.4537 172.364 55.0115C177.809 52.5737 200.988 53.042 206.245 55.0115C211.501 56.981 202.092 67.0079 202.092 67.0079C202.092 67.0079 181.571 65.0646 159.934 70.7761Z" fill="#CF391A"/>
<path d="M186.166 81.6215C186.048 82.9957 186.109 84.3787 186.328 85.753C186.569 87.1141 186.911 88.519 187.861 89.7095C188.102 89.9983 188.409 90.2566 188.763 90.4448C188.869 90.4973 188.904 90.5279 188.952 90.5586C189 90.5848 189.048 90.6155 189.07 90.6548C189.101 90.6899 189.14 90.7205 189.149 90.7686C189.162 90.808 189.197 90.8474 189.188 90.8999C189.219 91.0881 189.14 91.3507 188.956 91.5608C188.777 91.7709 188.544 91.9678 188.268 92.1035C187.725 92.388 187.073 92.5105 186.416 92.5193C185.75 92.5499 185.084 92.4011 184.41 92.2786C185.027 92.5718 185.684 92.8344 186.394 92.9176C187.095 93.0051 187.844 92.9701 188.54 92.6769C188.89 92.5412 189.219 92.318 189.495 92.0204C189.766 91.7271 189.981 91.307 189.946 90.8168C189.95 90.6942 189.902 90.5761 189.854 90.4579C189.815 90.3354 189.736 90.2434 189.653 90.1472C189.578 90.0421 189.482 89.9765 189.385 89.9152C189.289 89.8495 189.18 89.7839 189.136 89.7576C188.89 89.622 188.667 89.4294 188.474 89.193C188.076 88.7335 187.782 88.1427 187.541 87.5343C187.292 86.9259 187.112 86.2826 186.941 85.6305C186.613 84.3175 186.381 82.9782 186.166 81.6215Z" fill="#5F3732"/>
<path d="M188.961 82.65C188.961 83.7047 189.508 84.5582 190.183 84.5582C190.857 84.5582 191.405 83.7047 191.405 82.65C191.405 81.5952 190.857 80.7374 190.183 80.7374C189.508 80.7417 188.961 81.5952 188.961 82.65Z" fill="#4C2843"/>
<path d="M176.276 82.65C176.276 83.7047 176.823 84.5582 177.498 84.5582C178.172 84.5582 178.72 83.7047 178.72 82.65C178.72 81.5952 178.172 80.7374 177.498 80.7374C176.823 80.7374 176.276 81.5952 176.276 82.65Z" fill="#4C2843"/>
<path d="M192.719 79.8491C192.543 79.3414 192.189 78.9606 191.781 78.6805C191.374 78.3873 190.892 78.2035 190.393 78.1291C189.894 78.059 189.377 78.0766 188.904 78.2429C188.426 78.3829 187.988 78.6586 187.655 79.0613L187.642 79.0788C187.629 79.0963 187.629 79.1182 187.647 79.1313C187.655 79.1401 187.668 79.1401 187.682 79.1401C188.106 79.0219 188.531 78.9169 188.965 78.8819C189.399 78.8337 189.837 78.86 190.266 78.9256C190.699 78.9825 191.12 79.1051 191.523 79.2714C191.926 79.4421 192.316 79.6521 192.662 79.9104C192.679 79.9235 192.701 79.9191 192.714 79.9016C192.723 79.8928 192.723 79.8797 192.719 79.8666V79.8491Z" fill="#5F3732"/>
<path d="M174.892 79.9102C175.238 79.6476 175.627 79.4375 176.03 79.2712C176.433 79.1049 176.858 78.9823 177.288 78.9254C177.717 78.8598 178.155 78.8335 178.588 78.8817C179.026 78.9167 179.451 79.0217 179.872 79.1399C179.894 79.1443 179.911 79.1355 179.92 79.1136C179.924 79.1005 179.92 79.0874 179.911 79.0786L179.898 79.0611C179.565 78.6584 179.132 78.3827 178.65 78.2427C178.172 78.0764 177.655 78.0545 177.161 78.1289C176.661 78.2033 176.179 78.3871 175.772 78.6803C175.365 78.9648 175.006 79.3412 174.835 79.8489L174.83 79.8664C174.822 79.8883 174.835 79.9102 174.852 79.9145C174.87 79.9189 174.883 79.9145 174.892 79.9102Z" fill="#5F3732"/>
<path d="M188.693 99.3862C188.006 99.8808 187.257 100.165 186.486 100.318C185.719 100.463 184.931 100.48 184.182 100.327C183.428 100.191 182.715 99.8764 182.084 99.43C181.449 98.9748 180.91 98.3796 180.393 97.7056C180.603 98.5196 181.041 99.303 181.681 99.9114C182.316 100.529 183.153 100.944 184.029 101.115C184.909 101.277 185.82 101.216 186.652 100.922C187.48 100.634 188.251 100.113 188.693 99.3862Z" fill="#5F3732"/>
<path d="M179.202 97.7012C179.368 97.9025 179.587 97.9944 179.81 98.0426C180.034 98.0863 180.27 98.0688 180.494 97.9944C180.936 97.85 181.33 97.443 181.304 96.9309C181.046 96.9834 180.875 97.0491 180.7 97.0885L180.235 97.2329C179.933 97.3423 179.631 97.4517 179.202 97.7012Z" fill="#5F3732"/>
<path d="M159.452 80.7417V93.6353C159.452 93.6353 154.774 93.7491 152.803 89.5038C150.223 83.9454 154.428 78.2602 159.452 80.7417Z" fill="#B28473"/>
<path d="M158.729 82.65C158.173 82.3086 157.507 82.1466 156.815 82.186C156.644 82.2123 156.469 82.2254 156.298 82.2736C156.132 82.3348 155.952 82.3742 155.794 82.4618C155.641 82.5537 155.47 82.6368 155.339 82.755C155.207 82.8775 155.058 82.9957 154.945 83.1314C154.472 83.7003 154.305 84.3962 154.222 85.0527C154.217 85.3854 154.209 85.7136 154.244 86.0375C154.301 86.3613 154.358 86.6765 154.45 86.9872C154.537 86.6677 154.585 86.357 154.638 86.0506C154.699 85.7486 154.787 85.4554 154.839 85.1621C154.888 85.0221 154.94 84.8864 154.984 84.7464C155.028 84.6063 155.067 84.4663 155.142 84.3481C155.207 84.2255 155.256 84.0942 155.326 83.9717L155.562 83.6435C155.895 83.2277 156.359 82.9563 156.911 82.7988C157.472 82.6675 158.085 82.6281 158.729 82.65Z" fill="#5F3732"/>
<path d="M207.896 93.3902L193.844 88.7159C193.844 88.7159 191.164 83.3371 193.844 77.6868L207.896 73.7741V93.3902Z" fill="#3B5000"/>
<path d="M209.67 93.6222C205.042 93.6222 201.291 89.1291 201.291 83.5865C201.291 78.044 205.042 73.5509 209.67 73.5509C214.297 73.5509 218.049 78.044 218.049 83.5865C218.049 89.1291 214.297 93.6222 209.67 93.6222Z" fill="#64653D"/>
<path opacity="0.6" d="M209.67 92.1079C205.741 92.1079 202.556 88.2927 202.556 83.5866C202.556 78.8804 205.741 75.0652 209.67 75.0652C213.598 75.0652 216.783 78.8804 216.783 83.5866C216.783 88.2927 213.598 92.1079 209.67 92.1079Z" fill="white"/>
<g opacity="0.3">
<path opacity="0.3" d="M207.488 75.4766L215.605 88.287C215.07 89.2499 214.378 90.0727 213.572 90.7073L205.001 77.1704C205.719 76.4176 206.56 75.8355 207.488 75.4766Z" fill="white"/>
<path opacity="0.3" d="M204.028 78.409L212.311 91.4908C211.492 91.8803 210.603 92.1035 209.67 92.1035C209.039 92.1035 208.435 91.9941 207.852 91.8103L202.561 83.4553C202.583 81.5602 203.126 79.8139 204.028 78.409Z" fill="white"/>
<path opacity="0.3" d="M216.257 86.8034L208.859 75.1221C209.127 75.0871 209.398 75.0609 209.67 75.0609C210.239 75.0609 210.795 75.1484 211.325 75.3016L216.774 83.906C216.739 84.9258 216.564 85.9062 216.257 86.8034Z" fill="white"/>
</g>
<path d="M161.138 115.908C166.889 116.127 168.12 118.867 168.339 127.961C168.44 132.224 170.091 134.145 172.588 134.145C172.601 134.145 172.614 134.145 172.627 134.145C174.918 134.119 176.705 133.323 176.871 126.578L178.076 89.7357C178.076 89.2543 179.447 89.4818 179.447 89.9676L179.889 126.583C179.889 137.424 176.109 138.343 173.42 138.343C173.402 138.343 173.38 138.343 173.363 138.343C168.54 138.343 166.307 134.78 166.175 129.432C165.987 121.663 164.292 117.475 161.134 116.95C161.138 115.908 161.138 115.908 161.138 115.908Z" fill="#3B5000"/>
<path d="M187.576 93.3902L173.525 88.7159C173.525 88.7159 170.844 83.3371 173.525 77.6868L187.576 73.7741V93.3902Z" fill="#3B5000"/>
<path d="M189.35 93.6222C184.723 93.6222 180.971 89.1291 180.971 83.5865C180.971 78.044 184.723 73.5509 189.35 73.5509C193.978 73.5509 197.73 78.044 197.73 83.5865C197.73 89.1291 193.978 93.6222 189.35 93.6222Z" fill="#64653D"/>
<path opacity="0.6" d="M189.35 92.1079C185.422 92.1079 182.237 88.2927 182.237 83.5866C182.237 78.8804 185.422 75.0652 189.35 75.0652C193.279 75.0652 196.464 78.8804 196.464 83.5866C196.464 88.2927 193.279 92.1079 189.35 92.1079Z" fill="white"/>
<g opacity="0.3">
<path opacity="0.3" d="M187.169 75.4766L195.281 88.287C194.747 89.2499 194.055 90.0727 193.249 90.7073L184.677 77.1704C185.395 76.4176 186.241 75.8355 187.169 75.4766Z" fill="white"/>
<path opacity="0.3" d="M183.704 78.409L191.987 91.4908C191.168 91.8803 190.279 92.1035 189.346 92.1035C188.715 92.1035 188.111 91.9941 187.528 91.8103L182.237 83.4553C182.263 81.5602 182.807 79.8139 183.704 78.409Z" fill="white"/>
<path opacity="0.3" d="M195.938 86.8034L188.54 75.1221C188.807 75.0871 189.079 75.0609 189.35 75.0609C189.92 75.0609 190.476 75.1484 191.006 75.3016L196.451 83.906C196.42 84.9258 196.245 85.9062 195.938 86.8034Z" fill="white"/>
</g>
<g style="mix-blend-mode:multiply" opacity="0.25">
<path d="M145.037 118.683C148.707 116.678 153.766 115.361 159.325 114.739C159.316 114.604 159.307 114.472 159.298 114.328L163.227 93.6922C168.935 90.9174 169.592 83.836 176.223 84.1074C176.223 84.1074 178.501 143.726 170.117 158.957C160.893 175.71 144.178 169.544 138.007 147.087C138.265 134.706 136.075 123.576 145.037 118.683Z" fill="#B28473"/>
</g>
<path d="M143.158 118.407C147.827 115.641 157.086 128.39 164.081 142.238C171.077 156.086 164.988 164.826 156.697 164.598C148.409 164.37 138.173 149.875 134.805 139.909C131.436 129.944 138.024 121.449 143.158 118.407Z" fill="#FFCFAA"/>
<path d="M178.799 76.0237C178.799 76.0237 175.347 83.7003 175.347 94.2042C175.347 104.708 171.979 145.345 168.094 156.348C164.209 167.351 148.598 169.106 146.614 153.42C144.577 137.318 156.097 94.4931 164.077 84.3874C171.944 74.4262 174.313 75.4328 178.799 76.0237Z" fill="#FFCFAA"/>
<path d="M175.719 87.7181C175.518 89.1449 175.369 90.5804 175.286 92.0247C175.242 92.7468 175.211 93.469 175.198 94.1911L175.115 96.3488C174.979 99.2243 174.8 102.1 174.567 104.971C174.129 110.713 173.652 116.455 173.061 122.188C172.526 127.926 171.887 133.651 171.16 139.362L170.582 143.643C170.358 145.065 170.157 146.492 169.911 147.91C169.653 149.324 169.452 150.755 169.127 152.155C168.97 152.856 168.847 153.569 168.659 154.26L168.094 156.348C169.973 150.882 170.875 145.14 171.773 139.446C172.627 133.738 173.267 128.001 173.862 122.263C174.388 116.516 174.878 110.77 175.185 105.006C175.343 102.126 175.452 99.2418 175.509 96.3532L175.5 94.1867C175.487 93.469 175.487 92.7468 175.5 92.0291C175.527 90.5935 175.601 89.1536 175.719 87.7181Z" fill="#5F3732"/>
<path d="M147.205 138.399C147.757 135.314 148.331 132.237 148.992 129.174C149.636 126.11 150.332 123.059 151.103 120.026C152.654 113.965 154.353 107.938 156.434 102.043C157.472 99.0973 158.549 96.1606 159.78 93.2895C160.389 91.854 161.042 90.436 161.738 89.0442C162.443 87.6568 163.179 86.2825 164.055 85.0133C164.936 83.7441 165.882 82.488 166.867 81.2844C167.862 80.0896 168.913 78.9342 170.095 77.9363C171.274 76.9515 172.614 76.0981 174.147 75.8399C175.676 75.5642 177.248 75.8793 178.803 76.0281C177.266 75.783 175.711 75.3891 174.112 75.6035C172.518 75.8049 171.059 76.6189 169.824 77.6037C168.584 78.5972 167.485 79.7438 166.447 80.9255C165.413 82.1204 164.436 83.3414 163.503 84.6282C162.592 85.9368 161.834 87.3242 161.107 88.7247C160.389 90.1296 159.723 91.5564 159.097 92.9963C157.849 95.8849 156.705 98.8128 155.694 101.785C154.673 104.756 153.744 107.754 152.882 110.774C152.019 113.794 151.221 116.827 150.529 119.891C149.829 122.95 149.185 126.018 148.628 129.108C148.081 132.193 147.586 135.288 147.205 138.399Z" fill="#5F3732"/>
<path d="M175.54 95.8805C175.54 95.8805 167.673 98.2045 160.113 91.3069C160.113 91.3069 157.323 92.8387 158.098 96.4451C158.098 96.4451 165.023 103.566 175.737 101.041C175.741 101.041 176.955 98.2088 175.54 95.8805Z" fill="#3B5000"/>
<path d="M161.769 100.318C163.332 100.817 165.212 99.2986 165.969 96.9309C166.727 94.5631 166.07 92.2391 164.506 91.7402L163.849 91.4732L160.893 99.9639L161.769 100.318Z" fill="#D3D3D3"/>
<path d="M161.116 100.053C159.554 99.5548 158.9 97.2303 159.656 94.8607C160.412 92.4911 162.292 90.9737 163.855 91.4716C165.417 91.9695 166.071 94.294 165.315 96.6636C164.558 99.0332 162.679 100.551 161.116 100.053Z" fill="white"/>
<path d="M160.288 95.062C159.701 96.8958 160.209 98.699 161.418 99.0841C162.627 99.4693 164.086 98.2963 164.673 96.4582C165.26 94.62 164.752 92.8212 163.543 92.436C162.334 92.0509 160.875 93.2282 160.288 95.062Z" fill="#FDD673"/>
<path d="M162.877 97.3729C162.838 96.8127 162.75 96.2656 162.632 95.7229C162.614 95.6398 162.531 95.5872 162.448 95.6047C162.408 95.6135 162.378 95.6354 162.356 95.6616L162.351 95.666C161.808 96.3882 161.291 97.1322 160.888 97.9594C161.545 97.316 162.089 96.5939 162.601 95.8498L162.325 95.7973C162.478 96.3313 162.654 96.8565 162.877 97.3729Z" fill="#4C2843"/>
<path d="M182.776 115.908C188.527 116.127 189.758 118.867 189.977 127.961C190.077 132.224 191.729 134.145 194.225 134.145C194.239 134.145 194.252 134.145 194.265 134.145C196.556 134.119 198.343 133.323 198.509 126.578L199.714 89.7357C199.714 89.2543 201.085 89.4819 201.085 89.9677L201.527 126.578C201.527 137.419 197.747 138.338 195.058 138.338C195.04 138.338 195.018 138.338 195.001 138.338C190.178 138.338 187.944 134.776 187.813 129.427C187.625 121.659 185.93 117.47 182.771 116.945C182.776 115.908 182.776 115.908 182.776 115.908Z" fill="#3B5000"/>
</g>
<g clip-path="url(#clip2_2_226)">
<path d="M198.472 226.658C198.472 226.658 198.317 226.308 198.044 225.658C195.024 218.517 177.498 175.233 193.366 168.754C196.046 167.66 198.229 167.675 199.963 168.583L199.968 168.585C209.428 173.529 205.719 204.877 198.472 226.658Z" fill="#96C258"/>
<g opacity="0.43">
<path opacity="0.43" d="M194.524 168.34C195.525 173.115 196.297 177.937 196.912 182.778C197.064 183.988 197.22 185.199 197.354 186.415L197.743 190.056C197.967 192.487 198.185 194.921 198.351 197.356C198.531 199.791 198.636 202.231 198.76 204.674L198.868 208.338L198.916 210.169L198.924 212.002C198.998 216.89 198.793 221.782 198.475 226.656C198.394 224.214 198.447 221.775 198.338 219.337L198.25 215.683L198.115 212.03C197.928 207.161 197.674 202.297 197.322 197.439C196.998 192.577 196.582 187.727 196.114 182.876C195.632 178.03 195.128 173.183 194.524 168.34Z" fill="#467238"/>
</g>
<g style="mix-blend-mode:multiply" opacity="0.24">
<path d="M201.487 174.332C203.065 174.718 204.189 182.608 201.611 182.487C199.033 182.374 198.648 173.639 201.487 174.332Z" fill="#2D480B"/>
</g>
<path d="M202.177 225.904C200.977 226.356 200.294 226.602 200.294 226.602C213.02 203.602 238.132 175.347 245.829 188.952C246.107 189.434 246.36 189.976 246.59 190.574C252.476 205.875 211.543 222.359 202.177 225.904Z" fill="#96C258"/>
<g style="mix-blend-mode:multiply" opacity="0.24">
<path d="M242.959 196.807C244.231 198.211 239.368 204.93 236.838 203.708C234.308 202.486 241.77 195.495 242.959 196.807Z" fill="#2D480B"/>
</g>
<g style="mix-blend-mode:multiply" opacity="0.24">
<path d="M232.699 203.495C233.74 204.166 230.222 207.384 228.717 206.441C227.213 205.501 231.661 202.823 232.699 203.495Z" fill="#2D480B"/>
</g>
<g opacity="0.43">
<path opacity="0.43" d="M246.102 189.462C242.11 192.346 238.183 195.306 234.272 198.286C230.37 201.274 226.494 204.302 222.681 207.399C218.846 210.475 215.077 213.627 211.351 216.83L208.557 219.238L205.797 221.68C203.923 223.274 202.156 224.987 200.294 226.602C203.681 223.033 207.155 219.532 210.818 216.234L212.178 214.984L213.567 213.764L216.347 211.326C218.237 209.745 220.113 208.147 222.035 206.606C223.952 205.056 225.898 203.543 227.851 202.04L230.81 199.824C231.8 199.089 232.8 198.372 233.798 197.651C237.796 194.769 241.886 192.018 246.102 189.462Z" fill="#467238"/>
</g>
<path d="M200.078 226.702C199.997 226.791 199.988 226.272 200.052 225.272C200.657 215.945 207.789 164.487 223.677 167.25C223.945 167.293 224.217 167.356 224.492 167.434C242.688 172.633 220.18 205.421 200.078 226.702Z" fill="#96C258"/>
<g opacity="0.43">
<path opacity="0.43" d="M225.983 167.959C224.506 173.104 222.738 178.168 220.834 183.175C218.933 188.185 216.876 193.141 214.707 198.044C212.505 202.932 210.243 207.799 207.789 212.571C206.596 214.975 205.31 217.327 204.048 219.695C203.415 220.876 202.738 222.035 202.082 223.208C201.424 224.378 200.758 225.54 200.081 226.7C202.423 221.875 204.784 217.069 207.064 212.225L208.779 208.594L210.455 204.948C211.021 203.738 211.574 202.519 212.121 201.299C212.669 200.078 213.228 198.864 213.764 197.638L215.384 193.969L216.971 190.286C217.511 189.061 218.022 187.828 218.54 186.595L220.086 182.893L220.853 181.039L221.603 179.178C222.115 177.941 222.602 176.696 223.096 175.452C224.098 172.968 225.047 170.468 225.983 167.959Z" fill="#467238"/>
</g>
<g style="mix-blend-mode:multiply" opacity="0.24">
<path d="M228.407 174.777C230.456 175.254 228.486 184.402 226.214 184.396C223.941 184.39 226.824 174.411 228.407 174.777Z" fill="#2D480B"/>
</g>
<g style="mix-blend-mode:multiply" opacity="0.24">
<path d="M224.914 186.46C226.36 186.892 224.656 193.732 222.52 193.119C220.387 192.509 222.967 185.877 224.914 186.46Z" fill="#78A144"/>
</g>
</g>
<g clip-path="url(#clip3_2_226)">
<path d="M57.954 64.2166C57.954 64.2166 49.8195 68.9468 47.3345 69.2029C44.8496 69.4589 46.046 66.9196 47.3345 65.8597C47.3345 65.8597 44.4389 65.9735 44.0283 64.7359C43.6177 63.5053 48.3965 62.6233 48.3965 62.6233C48.3965 62.6233 45.8195 61.791 46.5062 60.2262C47.1929 58.6542 56.6655 61.471 56.6655 61.471L57.954 64.2166Z" fill="#79E0B2"/>
<g opacity="0.5">
<g opacity="0.5">
<path opacity="0.5" d="M56.446 63.0927C55.0442 63.0429 53.692 62.794 52.3469 62.4952C51.0089 62.1751 49.6779 61.8124 48.3965 61.2504C49.7982 61.3002 51.1504 61.5492 52.4956 61.8479C53.8336 62.168 55.1646 62.5308 56.446 63.0927Z" fill="#082116"/>
</g>
<g opacity="0.5">
<path opacity="0.5" d="M45.2602 64.7359C47.1363 64.3091 48.9912 64.0886 50.846 63.9179C52.7009 63.7685 54.5558 63.6618 56.446 63.7614C54.6053 64.1881 52.7292 64.4087 50.8602 64.5794C48.9841 64.7359 47.108 64.8354 45.2602 64.7359Z" fill="#082116"/>
</g>
<g opacity="0.5">
<path opacity="0.5" d="M47.377 68.0078C48.8496 67.1756 50.3929 66.5354 51.9504 65.9379C53.515 65.3618 55.1009 64.8283 56.7575 64.4869C55.285 65.3191 53.7416 65.9664 52.1841 66.5568C50.6195 67.1329 49.0336 67.6664 47.377 68.0078Z" fill="#082116"/>
</g>
</g>
<path d="M75.3274 60.8237C75.3274 60.8237 83.6035 63.9605 87.3274 61.7484C87.3274 61.7484 89.1681 64.5651 86.7752 66.1798C86.7752 66.1798 88.0637 69.8288 84.1982 70.846C84.1982 70.846 83.4619 74.6301 79.2354 73.5703C79.2354 73.5703 75.285 77.5394 69.7699 72.233L75.3274 60.8237Z" fill="#79E0B2"/>
<g opacity="0.5">
<g opacity="0.5">
<path opacity="0.5" d="M86.7681 66.1798C86.2655 66.6137 85.6071 66.82 84.977 66.948C84.3327 67.076 83.6814 67.0903 83.0372 67.0547C82.3929 67.0049 81.7558 66.8911 81.1398 66.7133C80.5239 66.5283 79.9292 66.2936 79.3699 65.9522C80.0212 65.9308 80.6442 65.9806 81.2673 66.0304C81.8832 66.066 82.492 66.1371 83.1009 66.1655C83.7097 66.2225 84.3115 66.2438 84.9204 66.258C85.5221 66.2651 86.131 66.2722 86.7681 66.1798Z" fill="black"/>
</g>
<g opacity="0.5">
<path opacity="0.5" d="M84.1982 70.846C83.731 71.2372 83.1221 71.4079 82.5345 71.479C81.9327 71.5573 81.331 71.4933 80.7504 71.3794C80.1699 71.2585 79.6106 71.0451 79.0867 70.7819C78.5628 70.5116 78.0814 70.1773 77.6566 69.7505C77.954 69.7861 78.2372 69.8644 78.5133 69.9284C78.7894 69.9924 79.0655 70.0564 79.3345 70.1347C79.8796 70.2556 80.4035 70.4192 80.9345 70.5116C81.4655 70.6326 81.9894 70.725 82.5274 70.7891C83.0655 70.846 83.6106 70.8886 84.1982 70.846Z" fill="black"/>
</g>
<g opacity="0.5">
<path opacity="0.5" d="M79.2354 73.5703C78.931 73.741 78.5982 73.7552 78.2796 73.7196C77.9611 73.6841 77.6637 73.5632 77.3805 73.4209C76.8496 73.0937 76.3965 72.6029 76.2761 71.9343C76.6089 72.0267 76.8637 72.1477 77.1186 72.2686C77.3664 72.3895 77.6 72.5175 77.8265 72.6527C78.2796 72.9159 78.6973 73.1791 79.2354 73.5703Z" fill="black"/>
</g>
</g>
<path d="M70.5912 54.3437C74.5558 54.2654 80.3327 62.2249 76.269 68.5698C72.2053 74.9147 60.3965 76.2733 56.0708 62.5877C56.0708 62.5877 61.5717 62.4597 63.7381 60.1693C65.9044 57.8717 66.0814 54.429 70.5912 54.3437Z" fill="#FFD470"/>
<path opacity="0.3" d="M58.0885 67.1401C62.5416 70.661 66.3646 68.8401 71.1009 64.2451C73.4867 61.9333 76.6726 62.0827 77.6283 63.0572C77.777 64.8781 77.4159 66.7844 76.2761 68.5627C72.7363 74.0895 63.3204 75.8322 58.0885 67.1401Z" fill="white"/>
<path d="M74.9593 57.9144L77.9894 57.3596L75.5044 59.2517C75.5115 59.2517 74.9734 59.0027 74.9593 57.9144Z" fill="#C44961"/>
<path d="M72.4319 57.8219C72.1912 57.4876 71.9788 57.1818 71.7593 56.947C71.5327 56.7123 71.3274 56.5771 71.108 56.5629C70.8673 56.5274 70.6619 56.5558 70.4354 56.7265C70.2089 56.9043 69.9894 57.196 69.7628 57.5445C69.6354 57.1462 69.6566 56.6981 69.9044 56.2855C70.0177 56.0792 70.2301 55.8943 70.4708 55.7876C70.7186 55.688 70.9735 55.6524 71.2354 55.688C71.7735 55.7591 72.1841 56.1788 72.3398 56.5843C72.5168 56.9897 72.5451 57.4165 72.4319 57.8219Z" fill="#754368"/>
<path d="M66.3646 56.3282C66.3646 56.3282 63.2425 55.8801 61.3522 52.2809C59.469 48.6816 58.9664 46 58.9664 46C58.9664 46 56.7292 45.9075 56.0779 49.2293C56.0779 49.2293 52.9487 48.5394 53.2673 52.2737C53.2673 52.2737 50.4142 53.3549 51.7522 56.6127C51.7522 56.6127 50.5133 61.4638 56.0779 62.8011C60.9204 63.9747 66.1805 61.4852 66.3646 56.3282Z" fill="#79E0B2"/>
<g opacity="0.5">
<g opacity="0.5">
<path opacity="0.5" d="M56.0708 49.2294C56.6159 50.6378 57.2106 51.9323 57.9965 53.1202C58.3717 53.7177 58.8035 54.2797 59.2779 54.8202C59.7381 55.3751 60.2761 55.8516 60.8071 56.4065C60.092 56.1717 59.3911 55.8161 58.8035 55.3253C58.1947 54.8558 57.685 54.2583 57.2531 53.611C56.8354 52.9566 56.5027 52.2524 56.2973 51.5127C56.092 50.7729 55.9858 49.9976 56.0708 49.2294Z" fill="black"/>
</g>
<g opacity="0.5">
<path opacity="0.5" d="M53.2673 52.2809C54.0956 53.3763 54.8389 54.4219 55.6673 55.4035C56.0708 55.9086 56.5168 56.3567 56.9699 56.819C57.423 57.2814 57.9257 57.6797 58.4425 58.1492C57.7699 58.0211 57.1115 57.7508 56.5381 57.3667C55.9575 56.9826 55.4336 56.5132 54.9947 55.9868C54.5558 55.4533 54.1664 54.8772 53.8761 54.2583C53.5788 53.6253 53.3451 52.9709 53.2673 52.2809Z" fill="black"/>
</g>
<g opacity="0.5">
<path opacity="0.5" d="M51.7451 56.6199C52.5381 57.2458 53.2673 57.7437 54.0389 58.2345C54.4212 58.4764 54.8177 58.7111 55.2142 58.953C55.6177 59.1948 56.0283 59.4295 56.4389 59.7425C55.4195 59.835 54.4283 59.5078 53.5646 58.9814C53.1469 58.6969 52.7434 58.3768 52.4248 57.9785C52.1133 57.5873 51.8372 57.1391 51.7451 56.6199Z" fill="black"/>
</g>
</g>
</g>
<defs>
<linearGradient id="paint0_linear_2_226" x1="171" y1="112" x2="171" y2="285" gradientUnits="userSpaceOnUse">
<stop stop-color="#FFEEB3"/>
<stop offset="1" stop-color="#FFE588"/>
</linearGradient>
<clipPath id="clip0_2_226">
<rect width="81.9673" height="86.8608" fill="white" transform="translate(78.4814 129) rotate(15)"/>
</clipPath>
<clipPath id="clip1_2_226">
<rect width="115" height="214" fill="white" transform="translate(110 46)"/>
</clipPath>
<clipPath id="clip2_2_226">
<rect width="56.4926" height="59.8653" fill="white" transform="translate(223.925 151.014) rotate(60)"/>
</clipPath>
<clipPath id="clip3_2_226">
<rect width="44" height="29" fill="white" transform="translate(44 46)"/>
</clipPath>
</defs>
</svg>
