<svg width="26" height="28" viewBox="0 0 26 28" fill="none" xmlns="http://www.w3.org/2000/svg">
<path d="M5.95977 5.74954L6.16141 6.00312C6.16386 6.00068 6.16596 5.99963 6.16771 5.99719L17.1623 19.3819L17.1658 19.3798L17.2747 19.5182L17.6269 19.9616C17.6682 22.1412 17.9934 23.3002 21.545 27.1642C21.6395 27.2688 21.8128 27.3979 22.0894 27.424C22.966 27.5084 24.4913 26.3672 25.0916 25.5566C25.4533 25.069 25.5555 24.6277 25.3952 24.2437L25.3661 24.1757L25.3213 24.1164C22.2787 20.0791 21.6773 19.6267 19.1865 18.7771L18.842 18.34L18.6425 18.0864L7.49767 4.49144L5.92091 2.49424C5.64259 1.23857 5.40489 0.445762 4.72398 0.07848L4.65957 0.0439493L4.58955 0.0258119C4.54894 0.0149993 4.50728 0.00767458 4.46282 0.00383783C3.80887 -0.0596429 3.07476 0.662364 2.86541 0.885244C2.43551 1.34147 2.25522 1.7391 2.31473 2.09905L2.33609 2.23683L2.41765 2.34984C2.90602 3.02755 3.56347 3.4182 4.39491 3.77467L5.95977 5.74954Z" fill="white"/>
<path d="M19.1564 20.3641C19.1564 20.3641 19.426 20.6773 19.8303 21.1464C19.9308 21.2647 20.0407 21.3909 20.1559 21.5256C20.2717 21.6609 20.3929 21.8032 20.5189 21.9493C20.7699 22.2451 21.0391 22.558 21.3069 22.873C21.4414 23.0296 21.5761 23.1865 21.7092 23.3403C21.8422 23.4942 21.971 23.648 22.096 23.7948C22.2199 23.9441 22.3386 24.0885 22.4489 24.228C22.5046 24.2964 22.5588 24.363 22.6113 24.4286C22.6628 24.4949 22.7122 24.558 22.7612 24.6194C22.8574 24.7408 22.9429 24.8534 23.0202 24.9525C23.0969 25.0533 23.1631 25.1412 23.2173 25.2134C23.2709 25.2866 23.3139 25.3431 23.3413 25.3822C23.37 25.4216 23.3847 25.4425 23.3847 25.4425L23.3749 25.4509C23.3749 25.4509 23.356 25.4324 23.323 25.3975C23.2894 25.363 23.2408 25.3096 23.1802 25.2437C23.1186 25.1785 23.043 25.0972 22.9583 25.0037C22.8742 24.9092 22.7794 24.8042 22.6775 24.6877C22.6257 24.6298 22.5725 24.5691 22.5182 24.506C22.4629 24.4422 22.4069 24.3773 22.3495 24.3103C22.2318 24.1768 22.1111 24.0337 21.9871 23.8855C21.865 23.7345 21.7379 23.5807 21.6108 23.422C21.4837 23.2626 21.3538 23.1032 21.224 22.9417C20.9625 22.6222 20.7034 22.3016 20.4594 21.9999C20.3365 21.8496 20.2189 21.7048 20.1076 21.5671C19.9952 21.4286 19.8898 21.2978 19.7932 21.1768C19.4039 20.6944 19.1455 20.3728 19.1455 20.3728L19.1564 20.3641Z" fill="#959595"/>
<path d="M19.5096 5.74954L19.3073 6.00311C19.3052 6.00067 19.3038 5.99963 19.3013 5.99719L8.30636 19.3819L8.30321 19.3798L8.19399 19.5182L7.84251 19.9616C7.8019 22.1412 7.47667 23.3002 3.92511 27.1642C3.82954 27.2688 3.65625 27.3979 3.37968 27.424C2.50413 27.5084 0.978484 26.3672 0.377396 25.5566C0.0157631 25.069 -0.0864604 24.6277 0.0742265 24.2437L0.102933 24.1757L0.147743 24.1164C3.18924 20.0791 3.79208 19.6267 6.2822 18.7771L6.62738 18.34L6.82727 18.0864L17.9717 4.49144L19.5492 2.49423C19.8279 1.23857 20.0652 0.445758 20.7468 0.0784762L20.8112 0.0439455L20.8809 0.0258081C20.9215 0.0149955 20.9635 0.00767076 21.0069 0.00383401C21.6612 -0.0596468 22.395 0.66236 22.6047 0.88524C23.0346 1.34146 23.2142 1.73909 23.1557 2.09905L23.1337 2.23682L23.0517 2.34983C22.5634 3.02754 21.9049 3.41819 21.0741 3.77466L19.5096 5.74954Z" fill="white"/>
<path d="M6.31265 20.3641C6.31265 20.3641 6.04273 20.6773 5.63909 21.1464C5.53792 21.2647 5.42834 21.3909 5.31247 21.5256C5.19764 21.6609 5.07581 21.8032 4.94943 21.9493C4.69808 22.2451 4.42921 22.558 4.1621 22.873C4.02697 23.0296 3.89289 23.1865 3.75986 23.3403C3.62683 23.4942 3.49765 23.648 3.37232 23.7948C3.24874 23.9441 3.12972 24.0885 3.01944 24.228C2.96343 24.2964 2.90987 24.363 2.8577 24.4286C2.80624 24.4949 2.75618 24.558 2.70787 24.6194C2.61195 24.7408 2.52548 24.8534 2.44846 24.9525C2.37249 25.0533 2.30598 25.1412 2.25207 25.2134C2.19885 25.2866 2.15509 25.3431 2.12744 25.3822C2.09838 25.4216 2.08368 25.4425 2.08368 25.4425L2.09383 25.4509C2.09383 25.4509 2.11238 25.4324 2.14599 25.3975C2.1796 25.363 2.22721 25.3096 2.28917 25.2437C2.35079 25.1785 2.42536 25.0972 2.50972 25.0037C2.59444 24.9092 2.68862 24.8042 2.79119 24.6877C2.843 24.6298 2.89586 24.5691 2.95118 24.506C3.00649 24.4422 3.0625 24.3773 3.12061 24.3103C3.23719 24.1768 3.35797 24.0337 3.48155 23.8855C3.60373 23.7345 3.7315 23.5807 3.85788 23.422C3.98636 23.2626 4.11554 23.1032 4.24542 22.9417C4.50623 22.6222 4.76599 22.3016 5.01035 21.9999C5.13217 21.8496 5.25015 21.7048 5.36218 21.5671C5.4735 21.4286 5.57818 21.2978 5.67585 21.1768C6.06409 20.6944 6.32385 20.3728 6.32385 20.3728L6.31265 20.3641Z" fill="#959595"/>
</svg>
