<svg width="20" height="24" viewBox="0 0 20 24" fill="none" xmlns="http://www.w3.org/2000/svg">
<path d="M8.06989 21.0033C7.74349 20.712 7.24257 20.6939 6.89408 20.9798C6.51073 21.2942 6.45699 21.8573 6.77404 22.2375C7.55564 23.2512 8.76485 23.8508 10.0515 23.8627L10.3069 23.852C11.4931 23.7659 12.5911 23.1809 13.3185 22.2375L13.3958 22.1296C13.623 21.757 13.5469 21.2656 13.1984 20.9798C12.8151 20.6653 12.2473 20.7186 11.9302 21.0988C11.791 21.2834 11.6258 21.4473 11.4397 21.5854C10.9422 21.9527 10.3174 22.1079 9.70406 22.0166C9.0907 21.9252 8.53947 21.5949 8.17269 21.0988H8.16225L8.06989 21.0033ZM10.041 0.333313C6.4296 0.333313 2.37979 2.87983 1.92053 6.96875V9.1012C1.76373 9.87085 1.40352 10.5854 0.876762 11.1715C0.845552 11.2069 0.817608 11.2451 0.793261 11.2854C0.315659 12.0044 0.0416794 12.8374 0 13.6974L0.031311 13.9147C-0.004673 15.0916 0.388115 16.2418 1.1377 17.1548C2.09495 18.1877 3.4036 18.833 4.81176 18.9664C8.28039 19.3471 11.7808 19.3471 15.2494 18.9664C16.637 18.8239 17.9229 18.1789 18.8609 17.1548C19.6228 16.2549 20.0274 15.1102 19.9986 13.9354V13.7905C19.9412 12.9048 19.6456 12.0505 19.1427 11.3165L19.0592 11.2129C18.5361 10.6243 18.1764 9.91082 18.0154 9.14261V7.01016L17.9577 6.89104C17.7822 6.5886 17.4404 6.41171 17.0825 6.45044C16.6798 6.49401 16.3564 6.79967 16.2932 7.19649V9.32894C16.2891 9.36679 16.2891 9.40496 16.2932 9.44281C16.5105 10.5108 17.0073 11.5032 17.7336 12.3206C18.0133 12.7625 18.1716 13.2692 18.1928 13.7905V14.0183C18.216 14.7515 17.9714 15.4683 17.504 16.0368C16.8559 16.7007 15.9893 17.112 15.0615 17.1962C11.7036 17.5585 8.31587 17.5585 4.95789 17.1962C4.00476 17.1095 3.11699 16.6784 2.46329 15.9851C2.01882 15.43 1.78598 14.7372 1.80572 14.0286V13.7905C1.82713 13.2675 1.98152 12.7583 2.25453 12.3102C3.01108 11.5021 3.53706 10.5089 3.77843 9.43246C3.78249 9.39461 3.78249 9.35644 3.77843 9.31859V7.17579C4.08113 4.04957 7.22286 2.11381 9.95753 2.11381C11.1202 2.11115 12.2637 2.40716 13.2767 2.973L13.4008 3.03458C13.6559 3.13758 13.9477 3.1195 14.1902 2.9797C14.4732 2.81661 14.6442 2.5137 14.6366 2.1892C14.6289 1.8647 14.4438 1.57005 14.1535 1.42024C12.8982 0.716926 11.4827 0.342822 10.041 0.333313Z" fill="#452933"/>
</svg>
